<?xml version="1.0" encoding="UTF-8" standalone="no"?>
<svg
   xmlns:dc="http://purl.org/dc/elements/1.1/"
   xmlns:cc="http://creativecommons.org/ns#"
   xmlns:rdf="http://www.w3.org/1999/02/22-rdf-syntax-ns#"
   xmlns:svg="http://www.w3.org/2000/svg"
   xmlns="http://www.w3.org/2000/svg"
   xmlns:sodipodi="http://sodipodi.sourceforge.net/DTD/sodipodi-0.dtd"
   xmlns:inkscape="http://www.inkscape.org/namespaces/inkscape"
   version="1.1"
   x="0px"
   y="0px"
   viewBox="0 0 572.69286 572.69287"
   xml:space="preserve"
   id="svg12"
   sodipodi:docname="OKJ TOOL.svg"
   inkscape:version="1.0.1 (3bc2e813f5, 2020-09-07)"
   width="572.69287"
   height="572.69287"><metadata
   id="metadata18"><rdf:RDF><cc:Work
       rdf:about=""><dc:format>image/svg+xml</dc:format><dc:type
         rdf:resource="http://purl.org/dc/dcmitype/StillImage" /><dc:title></dc:title></cc:Work></rdf:RDF></metadata><defs
   id="defs16">
	
	
</defs><sodipodi:namedview
   pagecolor="#ffffff"
   bordercolor="#666666"
   borderopacity="1"
   objecttolerance="10"
   gridtolerance="10"
   guidetolerance="10"
   inkscape:pageopacity="0"
   inkscape:pageshadow="2"
   inkscape:window-width="2237"
   inkscape:window-height="1162"
   id="namedview14"
   showgrid="false"
   inkscape:zoom="1.008"
   inkscape:cx="328.39082"
   inkscape:cy="284.70361"
   inkscape:window-x="2840"
   inkscape:window-y="614"
   inkscape:window-maximized="0"
   inkscape:current-layer="svg12"
   fit-margin-top="10"
   fit-margin-left="10"
   fit-margin-right="10"
   fit-margin-bottom="10"
   lock-margins="true" />
<style
   type="text/css"
   id="style2">
	.st0{fill:#FFFFFF;}
</style>


<rect
   style="fill:#cccccc;fill-opacity:0.0000836;stroke:#ffffff;stroke-width:0.735344;stroke-linejoin:round;stroke-opacity:1"
   id="rect1005"
   width="551.95752"
   height="551.95752"
   x="10.367672"
   y="10.367672" /><g
   id="g1003"
   transform="translate(35.276436,15.060186)"><g
     id="Layer_2"
     transform="translate(-244.97,-228.7075)">
	<path
   d="M 686.29,394.66 427.43,245.2 c -38.08,-21.99 -83.56,-21.99 -121.64,0 -38.08,21.99 -60.82,61.37 -60.82,105.34 v 298.91 c 0,43.97 22.74,83.35 60.82,105.34 19.04,11 39.93,16.49 60.82,16.49 20.89,0 41.78,-5.5 60.82,-16.49 L 686.29,605.33 c 38.08,-21.99 60.82,-61.37 60.82,-105.34 0,-43.97 -22.73,-83.34 -60.82,-105.33 z"
   id="path4" />
</g><path
     class="st0"
     d="M 428.82,187.6025 169.96,38.1425 C 105.54,0.9425 25,47.4425 25,121.8325 v 298.91 c 0,74.39 80.53,120.89 144.96,83.69 l 258.86,-149.46 c 64.43,-37.19 64.43,-130.17 0,-167.37 z"
     id="path7"
     style="fill:#39ff1c;fill-opacity:1" /><g
     id="g973"
     transform="translate(476.00083,52.651178)"><g
       id="g915"
       transform="translate(-414.70354,67.109044)"
       style="fill:#000000;fill-opacity:1"><g
         id="g855"
         style="fill:#000000;fill-opacity:1">
	<g
   id="g853"
   style="fill:#000000;fill-opacity:1">
		<g
   id="g851"
   style="fill:#000000;fill-opacity:1">
			<path
   d="m 150.057,105.1 c -24.789,0 -44.955,20.167 -44.955,44.955 0,24.788 20.166,44.955 44.955,44.955 24.789,0 44.955,-20.167 44.955,-44.955 0,-24.788 -20.167,-44.955 -44.955,-44.955 z m 0,73.26 c -15.607,0 -28.305,-12.697 -28.305,-28.305 0,-15.608 12.697,-28.305 28.305,-28.305 15.608,0 28.305,12.697 28.305,28.305 0,15.608 -12.699,28.305 -28.305,28.305 z"
   id="path845"
   style="fill:#000000;fill-opacity:1" />
			<path
   d="m 297.365,183.342 -25.458,-22.983 v -20.608 l 25.457,-22.981 c 2.614,-2.361 3.461,-6.112 2.112,-9.366 L 285.871,74.558 c -1.348,-3.253 -4.588,-5.305 -8.115,-5.128 l -34.252,1.749 -14.571,-14.571 1.749,-34.251 c 0.18,-3.518 -1.874,-6.769 -5.128,-8.116 L 192.707,0.635 c -3.253,-1.35 -7.005,-0.501 -9.365,2.111 L 160.358,28.204 H 139.752 L 116.77,2.746 c -2.361,-2.613 -6.112,-3.458 -9.365,-2.111 L 74.559,14.24 c -3.255,1.348 -5.308,4.599 -5.128,8.116 l 1.75,34.251 -14.572,14.571 -34.252,-1.749 c -3.506,-0.188 -6.768,1.874 -8.115,5.128 L 0.635,107.403 c -1.348,3.255 -0.502,7.005 2.112,9.366 l 25.457,22.981 v 20.608 L 2.749,183.341 c -2.614,2.361 -3.461,6.112 -2.112,9.366 l 13.605,32.846 c 1.348,3.255 4.603,5.321 8.115,5.128 l 34.252,-1.749 14.572,14.571 -1.75,34.251 c -0.18,3.518 1.874,6.769 5.128,8.116 l 32.846,13.606 c 3.255,1.352 7.005,0.502 9.365,-2.111 l 22.984,-25.458 h 20.606 l 22.984,25.458 c 1.613,1.785 3.873,2.746 6.182,2.746 1.071,0 2.152,-0.208 3.183,-0.634 l 32.846,-13.606 c 3.255,-1.348 5.308,-4.599 5.128,-8.116 l -1.749,-34.251 14.571,-14.571 34.252,1.749 c 3.506,0.178 6.768,-1.874 8.115,-5.128 l 13.605,-32.846 c 1.348,-3.255 0.502,-7.005 -2.112,-9.366 z m -24.628,30.412 -32.079,-1.639 c -2.351,-0.127 -4.646,0.764 -6.311,2.428 l -19.804,19.804 c -1.666,1.666 -2.547,3.958 -2.428,6.311 l 1.638,32.079 -21.99,9.109 -21.525,-23.843 c -1.578,-1.747 -3.824,-2.746 -6.179,-2.746 h -28.006 c -2.355,0 -4.601,0.998 -6.179,2.746 l -21.525,23.843 -21.99,-9.109 1.639,-32.079 c 0.12,-2.353 -0.763,-4.646 -2.429,-6.311 L 65.766,214.543 c -1.665,-1.665 -3.955,-2.55 -6.311,-2.428 l -32.079,1.639 -9.109,-21.99 23.842,-21.525 c 1.748,-1.58 2.746,-3.824 2.746,-6.179 v -28.008 c 0,-2.355 -0.998,-4.601 -2.746,-6.179 l -23.842,-21.525 9.109,-21.99 32.079,1.639 c 2.354,0.124 4.646,-0.763 6.311,-2.428 L 85.569,65.766 c 1.666,-1.666 2.549,-3.958 2.429,-6.313 l -1.639,-32.079 21.99,-9.109 21.525,23.842 c 1.578,1.747 3.824,2.746 6.179,2.746 h 28.006 c 2.355,0 4.601,-0.998 6.179,-2.746 l 21.525,-23.842 21.99,9.109 -1.638,32.079 c -0.12,2.353 0.761,4.645 2.428,6.313 l 19.804,19.803 c 1.666,1.665 3.959,2.564 6.311,2.428 l 32.079,-1.639 9.109,21.99 -23.843,21.525 c -1.748,1.58 -2.746,3.824 -2.746,6.179 v 28.008 c 0,2.355 0.998,4.601 2.746,6.179 l 23.843,21.525 z"
   id="path847"
   style="fill:#000000;fill-opacity:1" />
			<path
   d="m 150.057,71.357 c -43.394,0 -78.698,35.305 -78.698,78.698 0,43.394 35.304,78.698 78.698,78.698 43.394,0 78.698,-35.305 78.698,-78.698 -0.001,-43.394 -35.305,-78.698 -78.698,-78.698 z m 0,140.746 c -34.214,0 -62.048,-27.834 -62.048,-62.048 0,-34.214 27.834,-62.048 62.048,-62.048 34.214,0 62.048,27.834 62.048,62.048 0,34.214 -27.836,62.048 -62.048,62.048 z"
   id="path849"
   style="fill:#000000;fill-opacity:1" />
		</g>
	</g>
</g><g
         id="g857"
         style="fill:#000000;fill-opacity:1">
</g><g
         id="g859"
         style="fill:#000000;fill-opacity:1">
</g><g
         id="g861"
         style="fill:#000000;fill-opacity:1">
</g><g
         id="g863"
         style="fill:#000000;fill-opacity:1">
</g><g
         id="g865"
         style="fill:#000000;fill-opacity:1">
</g><g
         id="g867"
         style="fill:#000000;fill-opacity:1">
</g><g
         id="g869"
         style="fill:#000000;fill-opacity:1">
</g><g
         id="g871"
         style="fill:#000000;fill-opacity:1">
</g><g
         id="g873"
         style="fill:#000000;fill-opacity:1">
</g><g
         id="g875"
         style="fill:#000000;fill-opacity:1">
</g><g
         id="g877"
         style="fill:#000000;fill-opacity:1">
</g><g
         id="g879"
         style="fill:#000000;fill-opacity:1">
</g><g
         id="g881"
         style="fill:#000000;fill-opacity:1">
</g><g
         id="g883"
         style="fill:#000000;fill-opacity:1">
</g><g
         id="g885"
         style="fill:#000000;fill-opacity:1">
</g></g><path
       style="fill:#cccccc;fill-opacity:1;stroke:#ffffff;stroke-width:0.749906;stroke-linejoin:round;stroke-opacity:1"
       d="m -317.62895,343.91726 -10.15895,-4.17238 0.64209,-18.09961 0.64209,-18.09963 -11.19426,-11.34602 c -6.15684,-6.2403 -12.40265,-11.84655 -13.87957,-12.45831 -1.93741,-0.8025 -7.22127,-0.84649 -18.97142,-0.15792 -8.95736,0.52491 -16.34881,0.88313 -16.42545,0.79603 -0.0766,-0.0871 -2.14881,-4.94332 -4.60482,-10.79161 l -4.46548,-10.63328 12.31746,-11.05443 c 6.77459,-6.07994 12.75301,-11.8683 13.28537,-12.86303 0.53236,-0.99471 0.96792,-9.16974 0.96792,-18.16672 0,-19.21563 1.30577,-16.56786 -15.65323,-31.74087 l -10.92463,-9.77413 4.41299,-10.53313 c 2.42715,-5.79322 4.52416,-10.6443 4.66003,-10.78017 0.13587,-0.13587 7.73171,0.18126 16.87965,0.70473 13.73159,0.78577 17.09673,0.70877 19.29358,-0.44148 1.46354,-0.76629 7.53011,-6.34682 13.48127,-12.40118 l 10.82029,-11.00791 -0.65531,-18.14054 -0.6553,-18.140533 10.55859,-4.336201 10.55859,-4.336201 5.07008,5.389903 c 2.78854,2.964447 8.2274,8.842252 12.08637,13.061792 l 7.0163,7.67188 h 17.31653 c 13.5208,0 17.76666,-0.31529 19.37009,-1.43837 1.12947,-0.79111 6.65327,-6.59468 12.27511,-12.896829 5.62186,-6.302149 10.5921,-11.458452 11.04498,-11.458452 0.45289,0 5.34988,1.869577 10.88223,4.154617 l 10.05879,4.154617 -0.7174,17.738157 -0.7174,17.73816 12.47678,12.58143 12.47679,12.58143 13.66711,-0.42079 c 7.51691,-0.23143 15.5975,-0.45465 17.95685,-0.49603 l 4.28973,-0.0752 4.3763,10.3546 c 5.11337,12.09857 6.14844,9.51033 -9.25969,23.15421 -5.68319,5.03246 -10.96027,10.35542 -11.72687,11.82883 -1.02035,1.96112 -1.3924,6.74578 -1.38858,17.85714 0.004,12.75361 0.28172,15.60343 1.73611,17.84002 0.95199,1.46398 6.96123,7.40118 13.35387,13.19379 l 11.62297,10.53201 -1.9305,4.89772 c -1.06178,2.69375 -3.02104,7.47082 -4.35392,10.61574 -2.78856,6.57953 -0.15313,6.02977 -23.32686,4.86612 l -14.30183,-0.71816 -12.83554,12.83555 -12.83553,12.83553 0.71746,17.73989 0.71747,17.73989 -10.60242,4.34027 c -10.3848,4.25117 -10.63875,4.3015 -12.37267,2.45165 -0.97364,-1.03874 -6.33238,-6.91093 -11.90833,-13.04933 l -10.13807,-11.16071 h -17.20845 c -9.46465,0 -17.85968,0.2499 -18.65562,0.55533 -0.79595,0.30543 -6.45644,6.10901 -12.57887,12.89682 -6.12242,6.78783 -11.42289,12.32175 -11.7788,12.29761 -0.35592,-0.0241 -5.21865,-1.92147 -10.80607,-4.21627 z m 73.09742,-50.4184 c 14.88437,-3.80087 30.62473,-13.76919 40.41475,-25.5945 18.3906,-22.21391 23.29681,-53.43509 12.62982,-80.3712 -4.93203,-12.45423 -14.71008,-25.25382 -25.47306,-33.34449 -44.96578,-33.80139 -109.18203,-11.46929 -124.37311,43.25249 -1.32512,4.77338 -1.76643,9.90646 -1.74353,20.27991 0.0283,12.82058 0.26601,14.59705 3.09045,23.09542 4.38976,13.20826 9.94255,22.00403 20.51107,32.49005 9.73457,9.65859 18.74157,15.1742 31.47709,19.27564 13.36997,4.30576 28.91127,4.6335 43.46652,0.91668 z"
       id="path945" /><path
       style="fill:#cccccc;fill-opacity:1;stroke:#ffffff;stroke-width:0.749906;stroke-linejoin:round;stroke-opacity:1"
       d="m -279.98814,276.79312 c -21.91529,-5.94197 -38.88523,-23.06395 -44.47173,-44.8702 -2.42104,-9.45024 -1.49229,-26.9426 1.89686,-35.72616 16.35627,-42.39006 69.32935,-54.27832 100.92675,-22.65005 8.02459,8.03243 13.3307,16.83468 16.46237,27.30928 2.42761,8.11969 2.42761,24.61841 0,32.7381 -5.99249,20.04326 -20.56471,35.0705 -41.01109,42.29167 -8.58837,3.03321 -24.39742,3.45755 -33.80316,0.90736 z m 30.10799,-16.92661 c 11.48379,-3.951 20.65137,-12.29115 26.15272,-23.79226 3.44633,-7.20489 3.55902,-7.80171 3.55902,-18.84921 0,-11.12867 -0.091,-11.59921 -3.70516,-19.16843 -10.27829,-21.5258 -34.17342,-31.45197 -56.11711,-23.31136 -22.48026,8.33967 -34.49055,31.63863 -28.13124,54.57227 6.87296,24.78604 33.85569,38.93903 58.24177,30.54899 z"
       id="path947" /></g></g></svg>
